<mxfile host="app.diagrams.net" modified="2024-02-19T18:39:46.920Z" agent="Mozilla/5.0 (Windows NT 10.0; Win64; x64) AppleWebKit/537.36 (KHTML, like Gecko) Chrome/121.0.0.0 Safari/537.36" etag="OKefdFI8O0OcrK1ZtLpN" version="23.1.5" type="device">
  <diagram name="Page-1" id="RjTCMhBN7Ea-OPHLmbaN">
    <mxGraphModel dx="3112" dy="1797" grid="1" gridSize="10" guides="1" tooltips="1" connect="1" arrows="1" fold="1" page="1" pageScale="1" pageWidth="850" pageHeight="1100" math="0" shadow="0">
      <root>
        <mxCell id="0" />
        <mxCell id="1" parent="0" />
        <mxCell id="wMd6kTmUZ_Vu1S34rb21-1" value="" style="rounded=0;whiteSpace=wrap;html=1;fillColor=none;strokeColor=default;strokeWidth=3;" parent="1" vertex="1">
          <mxGeometry x="-1100" y="-250" width="1320" height="790" as="geometry" />
        </mxCell>
        <mxCell id="wMd6kTmUZ_Vu1S34rb21-2" value="&lt;font style=&quot;font-size: 18px;&quot;&gt;Receptionist&lt;/font&gt;" style="shape=umlActor;verticalLabelPosition=bottom;verticalAlign=top;html=1;fillColor=#dae8fc;strokeColor=#6c8ebf;gradientColor=#7ea6e0;" parent="1" vertex="1">
          <mxGeometry x="-1210" y="205" width="80" height="150" as="geometry" />
        </mxCell>
        <mxCell id="wMd6kTmUZ_Vu1S34rb21-6" value="&lt;font style=&quot;font-size: 18px;&quot;&gt;Lab Technician&lt;/font&gt;" style="shape=umlActor;verticalLabelPosition=bottom;verticalAlign=top;html=1;fillColor=#d5e8d4;strokeColor=#82b366;gradientColor=#97d077;" parent="1" vertex="1">
          <mxGeometry x="250" y="280" width="80" height="150" as="geometry" />
        </mxCell>
        <mxCell id="wMd6kTmUZ_Vu1S34rb21-7" value="&lt;font style=&quot;font-size: 18px;&quot;&gt;Doctor&lt;/font&gt;" style="shape=umlActor;verticalLabelPosition=bottom;verticalAlign=top;html=1;fillColor=#e6d0de;strokeColor=#996185;gradientColor=#d5739d;" parent="1" vertex="1">
          <mxGeometry x="220" y="-235" width="80" height="150" as="geometry" />
        </mxCell>
        <mxCell id="wMd6kTmUZ_Vu1S34rb21-8" value="&lt;font style=&quot;font-size: 14px;&quot;&gt;Login&lt;/font&gt;" style="ellipse;whiteSpace=wrap;html=1;fillColor=#d5e8d4;strokeColor=#82b366;gradientColor=#97d077;" parent="1" vertex="1">
          <mxGeometry x="-740" y="115" width="140" height="65" as="geometry" />
        </mxCell>
        <mxCell id="wMd6kTmUZ_Vu1S34rb21-9" value="&lt;font style=&quot;font-size: 14px;&quot;&gt;Record Lab Tests&lt;/font&gt;" style="ellipse;whiteSpace=wrap;html=1;fillColor=#d5e8d4;strokeColor=#82b366;gradientColor=#97d077;" parent="1" vertex="1">
          <mxGeometry x="-10" y="270" width="150" height="40" as="geometry" />
        </mxCell>
        <mxCell id="wMd6kTmUZ_Vu1S34rb21-13" value="&lt;font style=&quot;font-size: 14px;&quot;&gt;Record Quantity Of Lab Equipment&lt;/font&gt;" style="ellipse;whiteSpace=wrap;html=1;fillColor=#d5e8d4;strokeColor=#82b366;gradientColor=#97d077;" parent="1" vertex="1">
          <mxGeometry x="-270" y="300" width="180" height="55" as="geometry" />
        </mxCell>
        <mxCell id="wMd6kTmUZ_Vu1S34rb21-14" value="&lt;font style=&quot;font-size: 14px;&quot;&gt;Record Quality Of Lab Equipment&lt;/font&gt;" style="ellipse;whiteSpace=wrap;html=1;fillColor=#d5e8d4;strokeColor=#82b366;gradientColor=#97d077;" parent="1" vertex="1">
          <mxGeometry x="-280" y="390" width="180" height="50" as="geometry" />
        </mxCell>
        <mxCell id="wMd6kTmUZ_Vu1S34rb21-15" value="Login" style="ellipse;whiteSpace=wrap;html=1;fillColor=#e6d0de;strokeColor=#996185;gradientColor=#d5739d;" parent="1" vertex="1">
          <mxGeometry x="-492.5" y="-230" width="55" height="30" as="geometry" />
        </mxCell>
        <mxCell id="wMd6kTmUZ_Vu1S34rb21-16" value="Access Patient Medical History" style="ellipse;whiteSpace=wrap;html=1;fillColor=#e6d0de;strokeColor=#996185;gradientColor=#d5739d;" parent="1" vertex="1">
          <mxGeometry x="-240" y="-180" width="160" height="40" as="geometry" />
        </mxCell>
        <mxCell id="wMd6kTmUZ_Vu1S34rb21-17" value="Carry Out Lab Tests" style="ellipse;whiteSpace=wrap;html=1;fillColor=#e6d0de;strokeColor=#996185;gradientColor=#d5739d;" parent="1" vertex="1">
          <mxGeometry x="-40" y="50" width="110" height="40" as="geometry" />
        </mxCell>
        <mxCell id="wMd6kTmUZ_Vu1S34rb21-18" value="Prescribe Medication For Patient" style="ellipse;whiteSpace=wrap;html=1;fillColor=#e6d0de;strokeColor=#996185;gradientColor=#d5739d;" parent="1" vertex="1">
          <mxGeometry x="-290" y="-120" width="180" height="40" as="geometry" />
        </mxCell>
        <mxCell id="wMd6kTmUZ_Vu1S34rb21-21" value="&lt;font style=&quot;font-size: 14px;&quot;&gt;Login&lt;/font&gt;" style="ellipse;whiteSpace=wrap;html=1;fillColor=#dae8fc;strokeColor=#6c8ebf;gradientColor=#7ea6e0;" parent="1" vertex="1">
          <mxGeometry x="-830" y="370" width="120" height="40" as="geometry" />
        </mxCell>
        <mxCell id="wMd6kTmUZ_Vu1S34rb21-22" value="&lt;font style=&quot;font-size: 14px;&quot;&gt;Register Patient&lt;/font&gt;" style="ellipse;whiteSpace=wrap;html=1;fillColor=#dae8fc;strokeColor=#6c8ebf;gradientColor=#7ea6e0;" parent="1" vertex="1">
          <mxGeometry x="-700" y="470" width="110" height="40" as="geometry" />
        </mxCell>
        <mxCell id="wMd6kTmUZ_Vu1S34rb21-23" value="&lt;font style=&quot;font-size: 14px;&quot;&gt;Create Bookings&lt;/font&gt;" style="ellipse;whiteSpace=wrap;html=1;fillColor=#dae8fc;strokeColor=#6c8ebf;gradientColor=#7ea6e0;" parent="1" vertex="1">
          <mxGeometry x="-837.5" y="230" width="110" height="40" as="geometry" />
        </mxCell>
        <mxCell id="wMd6kTmUZ_Vu1S34rb21-24" value="&lt;font style=&quot;font-size: 14px;&quot;&gt;Check-In Patient&lt;/font&gt;" style="ellipse;whiteSpace=wrap;html=1;fillColor=#dae8fc;strokeColor=#6c8ebf;gradientColor=#7ea6e0;" parent="1" vertex="1">
          <mxGeometry x="-837.5" y="300" width="110" height="40" as="geometry" />
        </mxCell>
        <mxCell id="wMd6kTmUZ_Vu1S34rb21-25" value="&lt;font style=&quot;font-size: 14px;&quot;&gt;Register Staff&amp;nbsp;&lt;/font&gt;" style="ellipse;whiteSpace=wrap;html=1;fillColor=#dae8fc;strokeColor=#6c8ebf;gradientColor=#7ea6e0;" parent="1" vertex="1">
          <mxGeometry x="-1060" y="10" width="110" height="40" as="geometry" />
        </mxCell>
        <mxCell id="wMd6kTmUZ_Vu1S34rb21-26" value="" style="endArrow=classic;html=1;rounded=0;exitX=1;exitY=0.3333333333333333;exitDx=0;exitDy=0;exitPerimeter=0;entryX=0;entryY=0.5;entryDx=0;entryDy=0;" parent="1" source="wMd6kTmUZ_Vu1S34rb21-2" target="wMd6kTmUZ_Vu1S34rb21-21" edge="1">
          <mxGeometry width="50" height="50" relative="1" as="geometry">
            <mxPoint x="-830" y="370" as="sourcePoint" />
            <mxPoint x="-960" y="470" as="targetPoint" />
          </mxGeometry>
        </mxCell>
        <mxCell id="wMd6kTmUZ_Vu1S34rb21-27" value="" style="endArrow=classic;html=1;rounded=0;entryX=0;entryY=0.5;entryDx=0;entryDy=0;exitX=1;exitY=0.3333333333333333;exitDx=0;exitDy=0;exitPerimeter=0;" parent="1" source="wMd6kTmUZ_Vu1S34rb21-2" target="wMd6kTmUZ_Vu1S34rb21-22" edge="1">
          <mxGeometry width="50" height="50" relative="1" as="geometry">
            <mxPoint x="-760" y="370" as="sourcePoint" />
            <mxPoint x="-673" y="260" as="targetPoint" />
          </mxGeometry>
        </mxCell>
        <mxCell id="wMd6kTmUZ_Vu1S34rb21-28" value="" style="endArrow=classic;html=1;rounded=0;entryX=0;entryY=0.5;entryDx=0;entryDy=0;exitX=1;exitY=0.3333333333333333;exitDx=0;exitDy=0;exitPerimeter=0;" parent="1" source="wMd6kTmUZ_Vu1S34rb21-2" target="wMd6kTmUZ_Vu1S34rb21-23" edge="1">
          <mxGeometry width="50" height="50" relative="1" as="geometry">
            <mxPoint x="-760" y="370" as="sourcePoint" />
            <mxPoint x="-680" y="300" as="targetPoint" />
          </mxGeometry>
        </mxCell>
        <mxCell id="wMd6kTmUZ_Vu1S34rb21-29" value="" style="endArrow=classic;html=1;rounded=0;entryX=0;entryY=0.5;entryDx=0;entryDy=0;exitX=1;exitY=0.3333333333333333;exitDx=0;exitDy=0;exitPerimeter=0;" parent="1" source="wMd6kTmUZ_Vu1S34rb21-2" target="wMd6kTmUZ_Vu1S34rb21-24" edge="1">
          <mxGeometry width="50" height="50" relative="1" as="geometry">
            <mxPoint x="-770" y="360" as="sourcePoint" />
            <mxPoint x="-680" y="350" as="targetPoint" />
          </mxGeometry>
        </mxCell>
        <mxCell id="wMd6kTmUZ_Vu1S34rb21-30" value="" style="endArrow=classic;html=1;rounded=0;exitX=1;exitY=0.3333333333333333;exitDx=0;exitDy=0;exitPerimeter=0;" parent="1" source="wMd6kTmUZ_Vu1S34rb21-2" target="wMd6kTmUZ_Vu1S34rb21-25" edge="1">
          <mxGeometry width="50" height="50" relative="1" as="geometry">
            <mxPoint x="-750" y="380" as="sourcePoint" />
            <mxPoint x="-670" y="360" as="targetPoint" />
          </mxGeometry>
        </mxCell>
        <mxCell id="wMd6kTmUZ_Vu1S34rb21-33" value="" style="endArrow=classic;html=1;rounded=0;entryX=1;entryY=0.5;entryDx=0;entryDy=0;exitX=0;exitY=0.3333333333333333;exitDx=0;exitDy=0;exitPerimeter=0;" parent="1" source="wMd6kTmUZ_Vu1S34rb21-6" target="wMd6kTmUZ_Vu1S34rb21-9" edge="1">
          <mxGeometry width="50" height="50" relative="1" as="geometry">
            <mxPoint x="190" y="380" as="sourcePoint" />
            <mxPoint x="-195" y="290" as="targetPoint" />
          </mxGeometry>
        </mxCell>
        <mxCell id="wMd6kTmUZ_Vu1S34rb21-34" value="" style="endArrow=classic;html=1;rounded=0;entryX=1;entryY=0.5;entryDx=0;entryDy=0;exitX=0;exitY=0.3333333333333333;exitDx=0;exitDy=0;exitPerimeter=0;" parent="1" source="wMd6kTmUZ_Vu1S34rb21-6" target="wMd6kTmUZ_Vu1S34rb21-13" edge="1">
          <mxGeometry width="50" height="50" relative="1" as="geometry">
            <mxPoint x="-40" y="410" as="sourcePoint" />
            <mxPoint x="-185" y="300" as="targetPoint" />
          </mxGeometry>
        </mxCell>
        <mxCell id="wMd6kTmUZ_Vu1S34rb21-35" value="" style="endArrow=classic;html=1;rounded=0;entryX=1;entryY=0.5;entryDx=0;entryDy=0;exitX=1;exitY=0.735;exitDx=0;exitDy=0;exitPerimeter=0;" parent="1" source="wMd6kTmUZ_Vu1S34rb21-1" target="wMd6kTmUZ_Vu1S34rb21-14" edge="1">
          <mxGeometry width="50" height="50" relative="1" as="geometry">
            <mxPoint x="170" y="330" as="sourcePoint" />
            <mxPoint x="-175" y="310" as="targetPoint" />
          </mxGeometry>
        </mxCell>
        <mxCell id="wMd6kTmUZ_Vu1S34rb21-38" value="" style="endArrow=classic;html=1;rounded=0;entryX=0.959;entryY=0.313;entryDx=0;entryDy=0;entryPerimeter=0;exitX=0;exitY=0.3333333333333333;exitDx=0;exitDy=0;exitPerimeter=0;" parent="1" source="wMd6kTmUZ_Vu1S34rb21-7" target="wMd6kTmUZ_Vu1S34rb21-15" edge="1">
          <mxGeometry width="50" height="50" relative="1" as="geometry">
            <mxPoint x="110" y="-140" as="sourcePoint" />
            <mxPoint x="-212" y="-240" as="targetPoint" />
            <Array as="points" />
          </mxGeometry>
        </mxCell>
        <mxCell id="wMd6kTmUZ_Vu1S34rb21-40" value="" style="endArrow=classic;html=1;rounded=0;entryX=1;entryY=0.5;entryDx=0;entryDy=0;exitX=0;exitY=0.3333333333333333;exitDx=0;exitDy=0;exitPerimeter=0;" parent="1" source="wMd6kTmUZ_Vu1S34rb21-7" target="wMd6kTmUZ_Vu1S34rb21-16" edge="1">
          <mxGeometry width="50" height="50" relative="1" as="geometry">
            <mxPoint x="160" y="-190" as="sourcePoint" />
            <mxPoint x="-202" y="-230" as="targetPoint" />
            <Array as="points" />
          </mxGeometry>
        </mxCell>
        <mxCell id="wMd6kTmUZ_Vu1S34rb21-41" value="" style="endArrow=classic;html=1;rounded=0;entryX=0.542;entryY=0.062;entryDx=0;entryDy=0;entryPerimeter=0;exitX=0;exitY=0.3333333333333333;exitDx=0;exitDy=0;exitPerimeter=0;" parent="1" source="wMd6kTmUZ_Vu1S34rb21-7" target="wMd6kTmUZ_Vu1S34rb21-17" edge="1">
          <mxGeometry width="50" height="50" relative="1" as="geometry">
            <mxPoint x="160" y="-190" as="sourcePoint" />
            <mxPoint x="-192" y="-220" as="targetPoint" />
            <Array as="points" />
          </mxGeometry>
        </mxCell>
        <mxCell id="wMd6kTmUZ_Vu1S34rb21-42" value="" style="endArrow=classic;html=1;rounded=0;entryX=0.979;entryY=0.657;entryDx=0;entryDy=0;entryPerimeter=0;exitX=0;exitY=0.3333333333333333;exitDx=0;exitDy=0;exitPerimeter=0;" parent="1" source="wMd6kTmUZ_Vu1S34rb21-7" target="wMd6kTmUZ_Vu1S34rb21-18" edge="1">
          <mxGeometry width="50" height="50" relative="1" as="geometry">
            <mxPoint x="160" y="-190" as="sourcePoint" />
            <mxPoint x="-182" y="-210" as="targetPoint" />
            <Array as="points" />
          </mxGeometry>
        </mxCell>
        <mxCell id="wMd6kTmUZ_Vu1S34rb21-47" value="Access Patient Information" style="ellipse;whiteSpace=wrap;html=1;fillColor=#e6d0de;strokeColor=#996185;gradientColor=#d5739d;" parent="1" vertex="1">
          <mxGeometry x="-230" y="40" width="160" height="40" as="geometry" />
        </mxCell>
        <mxCell id="wMd6kTmUZ_Vu1S34rb21-48" value="" style="endArrow=classic;html=1;rounded=0;exitX=0;exitY=0.3333333333333333;exitDx=0;exitDy=0;exitPerimeter=0;" parent="1" source="wMd6kTmUZ_Vu1S34rb21-7" target="wMd6kTmUZ_Vu1S34rb21-47" edge="1">
          <mxGeometry width="50" height="50" relative="1" as="geometry">
            <mxPoint x="160" y="-170" as="sourcePoint" />
            <mxPoint x="-170" y="-34" as="targetPoint" />
            <Array as="points" />
          </mxGeometry>
        </mxCell>
        <mxCell id="wMd6kTmUZ_Vu1S34rb21-53" value="Access Patient Medical Record" style="ellipse;whiteSpace=wrap;html=1;fillColor=#e6d0de;strokeColor=#996185;gradientColor=#d5739d;" parent="1" vertex="1">
          <mxGeometry x="-310" y="-30" width="160" height="40" as="geometry" />
        </mxCell>
        <mxCell id="wMd6kTmUZ_Vu1S34rb21-64" value="" style="endArrow=classic;html=1;rounded=0;entryX=0.933;entryY=0.313;entryDx=0;entryDy=0;entryPerimeter=0;exitX=0;exitY=0.3333333333333333;exitDx=0;exitDy=0;exitPerimeter=0;" parent="1" source="wMd6kTmUZ_Vu1S34rb21-7" target="wMd6kTmUZ_Vu1S34rb21-53" edge="1">
          <mxGeometry width="50" height="50" relative="1" as="geometry">
            <mxPoint x="170" y="-180" as="sourcePoint" />
            <mxPoint x="-155" y="-4" as="targetPoint" />
            <Array as="points" />
          </mxGeometry>
        </mxCell>
        <mxCell id="3vj7JtZrJFT3cAtvKUg--6" value="&lt;font style=&quot;font-size: 14px;&quot;&gt;Verify if username and password is correct&lt;/font&gt;" style="ellipse;whiteSpace=wrap;html=1;fillColor=#A9C4EB;gradientColor=#B5739D;" parent="1" vertex="1">
          <mxGeometry x="-860" y="-130" width="205" height="70" as="geometry" />
        </mxCell>
        <mxCell id="3vj7JtZrJFT3cAtvKUg--12" value="&lt;font style=&quot;font-size: 14px;&quot;&gt;Include&lt;/font&gt;" style="html=1;verticalAlign=bottom;endArrow=open;dashed=1;endSize=8;curved=0;rounded=0;entryX=0.152;entryY=0.912;entryDx=0;entryDy=0;entryPerimeter=0;" parent="1" source="wMd6kTmUZ_Vu1S34rb21-25" target="3vj7JtZrJFT3cAtvKUg--6" edge="1">
          <mxGeometry x="-0.0013" y="13" relative="1" as="geometry">
            <mxPoint x="-810" y="160" as="sourcePoint" />
            <mxPoint x="-1180" y="420" as="targetPoint" />
            <Array as="points" />
            <mxPoint as="offset" />
          </mxGeometry>
        </mxCell>
        <mxCell id="3vj7JtZrJFT3cAtvKUg--13" value="&lt;font style=&quot;font-size: 14px;&quot;&gt;Include&lt;/font&gt;" style="html=1;verticalAlign=bottom;endArrow=open;dashed=1;endSize=8;curved=0;rounded=0;entryX=0.743;entryY=0.078;entryDx=0;entryDy=0;entryPerimeter=0;exitX=0;exitY=1;exitDx=0;exitDy=0;" parent="1" source="wMd6kTmUZ_Vu1S34rb21-15" target="3vj7JtZrJFT3cAtvKUg--6" edge="1">
          <mxGeometry x="0.0164" y="-7" relative="1" as="geometry">
            <mxPoint x="-290" y="-110" as="sourcePoint" />
            <mxPoint x="-370" y="-110" as="targetPoint" />
            <mxPoint as="offset" />
          </mxGeometry>
        </mxCell>
        <mxCell id="3vj7JtZrJFT3cAtvKUg--14" value="&lt;font style=&quot;font-size: 14px;&quot;&gt;Include&lt;/font&gt;" style="html=1;verticalAlign=bottom;endArrow=open;dashed=1;endSize=8;curved=0;rounded=0;entryX=0;entryY=0;entryDx=0;entryDy=0;" parent="1" source="wMd6kTmUZ_Vu1S34rb21-25" target="3vj7JtZrJFT3cAtvKUg--15" edge="1">
          <mxGeometry x="-0.1325" y="-27" relative="1" as="geometry">
            <mxPoint x="-800" y="170" as="sourcePoint" />
            <mxPoint x="-630" y="230" as="targetPoint" />
            <Array as="points" />
            <mxPoint as="offset" />
          </mxGeometry>
        </mxCell>
        <mxCell id="3vj7JtZrJFT3cAtvKUg--15" value="&lt;font style=&quot;font-size: 14px;&quot;&gt;Verify if username and password is correct&lt;/font&gt;" style="ellipse;whiteSpace=wrap;html=1;fillColor=#A9C4EB;gradientColor=#97D077;" parent="1" vertex="1">
          <mxGeometry x="-837.5" y="-5" width="160" height="70" as="geometry" />
        </mxCell>
        <mxCell id="3vj7JtZrJFT3cAtvKUg--16" value="&lt;font style=&quot;font-size: 14px;&quot;&gt;Include&lt;/font&gt;" style="html=1;verticalAlign=bottom;endArrow=open;dashed=1;endSize=8;curved=0;rounded=0;exitX=0.5;exitY=0;exitDx=0;exitDy=0;entryX=0.607;entryY=1.084;entryDx=0;entryDy=0;entryPerimeter=0;" parent="1" source="wMd6kTmUZ_Vu1S34rb21-8" target="3vj7JtZrJFT3cAtvKUg--15" edge="1">
          <mxGeometry x="-0.3998" y="-12" relative="1" as="geometry">
            <mxPoint x="-800" y="150" as="sourcePoint" />
            <mxPoint x="-770" y="70" as="targetPoint" />
            <mxPoint as="offset" />
          </mxGeometry>
        </mxCell>
        <mxCell id="3vj7JtZrJFT3cAtvKUg--18" value="&lt;font style=&quot;font-size: 14px;&quot;&gt;Verify if medical number is written on the lab test&lt;/font&gt;" style="ellipse;whiteSpace=wrap;html=1;fillColor=#97D077;gradientColor=#B5739D;" parent="1" vertex="1">
          <mxGeometry x="-70" y="150" width="250" height="75" as="geometry" />
        </mxCell>
        <mxCell id="3vj7JtZrJFT3cAtvKUg--19" value="&lt;font style=&quot;font-size: 14px;&quot;&gt;Include&lt;/font&gt;" style="html=1;verticalAlign=bottom;endArrow=open;dashed=1;endSize=8;curved=0;rounded=0;entryX=0.5;entryY=1;entryDx=0;entryDy=0;" parent="1" source="wMd6kTmUZ_Vu1S34rb21-9" target="3vj7JtZrJFT3cAtvKUg--18" edge="1">
          <mxGeometry x="-0.9898" y="-20" relative="1" as="geometry">
            <mxPoint x="-210" y="190" as="sourcePoint" />
            <mxPoint x="-118" y="198" as="targetPoint" />
            <mxPoint as="offset" />
          </mxGeometry>
        </mxCell>
        <mxCell id="3vj7JtZrJFT3cAtvKUg--20" value="&lt;font style=&quot;font-size: 14px;&quot;&gt;Include&lt;/font&gt;" style="html=1;verticalAlign=bottom;endArrow=open;dashed=1;endSize=8;curved=0;rounded=0;exitX=0.5;exitY=1;exitDx=0;exitDy=0;entryX=0.5;entryY=0;entryDx=0;entryDy=0;" parent="1" source="wMd6kTmUZ_Vu1S34rb21-17" target="3vj7JtZrJFT3cAtvKUg--18" edge="1">
          <mxGeometry x="0.7692" y="24" relative="1" as="geometry">
            <mxPoint x="90" y="150" as="sourcePoint" />
            <mxPoint x="29" y="139" as="targetPoint" />
            <mxPoint as="offset" />
          </mxGeometry>
        </mxCell>
        <mxCell id="3vj7JtZrJFT3cAtvKUg--22" value="Invalid Lab Test" style="ellipse;whiteSpace=wrap;html=1;fillColor=#97D077;gradientColor=#B5739D;" parent="1" vertex="1">
          <mxGeometry x="-270" y="125" width="120" height="40" as="geometry" />
        </mxCell>
        <mxCell id="3vj7JtZrJFT3cAtvKUg--23" value="&lt;span style=&quot;font-size: 14px;&quot;&gt;Extend&lt;/span&gt;" style="html=1;verticalAlign=bottom;endArrow=open;dashed=1;endSize=8;curved=0;rounded=0;exitX=1;exitY=0.5;exitDx=0;exitDy=0;entryX=0.038;entryY=0.306;entryDx=0;entryDy=0;entryPerimeter=0;" parent="1" source="3vj7JtZrJFT3cAtvKUg--22" target="3vj7JtZrJFT3cAtvKUg--18" edge="1">
          <mxGeometry x="0.0198" y="4" relative="1" as="geometry">
            <mxPoint x="-172" y="244" as="sourcePoint" />
            <mxPoint x="-108" y="208" as="targetPoint" />
            <mxPoint as="offset" />
          </mxGeometry>
        </mxCell>
        <mxCell id="3vj7JtZrJFT3cAtvKUg--24" value="&lt;span style=&quot;font-size: 14px;&quot;&gt;Extend&lt;/span&gt;" style="html=1;verticalAlign=bottom;endArrow=open;dashed=1;endSize=8;curved=0;rounded=0;entryX=0.447;entryY=-0.013;entryDx=0;entryDy=0;entryPerimeter=0;exitX=1;exitY=0.5;exitDx=0;exitDy=0;" parent="1" source="3vj7JtZrJFT3cAtvKUg--25" target="3vj7JtZrJFT3cAtvKUg--6" edge="1">
          <mxGeometry x="0.0704" y="11" relative="1" as="geometry">
            <mxPoint x="-637" y="-180" as="sourcePoint" />
            <mxPoint x="-820" y="-40" as="targetPoint" />
            <mxPoint as="offset" />
          </mxGeometry>
        </mxCell>
        <mxCell id="3vj7JtZrJFT3cAtvKUg--25" value="&lt;font style=&quot;font-size: 14px;&quot;&gt;Invalid username or password&lt;/font&gt;" style="ellipse;whiteSpace=wrap;html=1;fillColor=#A9C4EB;gradientColor=#B5739D;" parent="1" vertex="1">
          <mxGeometry x="-1075" y="-210" width="205" height="70" as="geometry" />
        </mxCell>
        <mxCell id="3vj7JtZrJFT3cAtvKUg--27" value="&lt;font style=&quot;font-size: 14px;&quot;&gt;Invalid username or password&lt;/font&gt;" style="ellipse;whiteSpace=wrap;html=1;fillColor=#A9C4EB;gradientColor=#97D077;" parent="1" vertex="1">
          <mxGeometry x="-987.5" y="135" width="150" height="60" as="geometry" />
        </mxCell>
        <mxCell id="3vj7JtZrJFT3cAtvKUg--29" value="&lt;font style=&quot;font-size: 14px;&quot;&gt;Extend&lt;/font&gt;" style="html=1;verticalAlign=bottom;endArrow=open;dashed=1;endSize=8;curved=0;rounded=0;entryX=0;entryY=1;entryDx=0;entryDy=0;exitX=0.655;exitY=0.047;exitDx=0;exitDy=0;exitPerimeter=0;" parent="1" source="3vj7JtZrJFT3cAtvKUg--27" target="3vj7JtZrJFT3cAtvKUg--15" edge="1">
          <mxGeometry x="0.1343" y="-29" relative="1" as="geometry">
            <mxPoint x="-890" y="150" as="sourcePoint" />
            <mxPoint x="-870" y="82" as="targetPoint" />
            <mxPoint as="offset" />
          </mxGeometry>
        </mxCell>
        <mxCell id="3vj7JtZrJFT3cAtvKUg--30" value="" style="endArrow=classic;html=1;rounded=0;entryX=0;entryY=0.5;entryDx=0;entryDy=0;exitX=1;exitY=0.5;exitDx=0;exitDy=0;" parent="1" source="wMd6kTmUZ_Vu1S34rb21-22" target="wMd6kTmUZ_Vu1S34rb21-47" edge="1">
          <mxGeometry width="50" height="50" relative="1" as="geometry">
            <mxPoint x="-680" y="480" as="sourcePoint" />
            <mxPoint x="-630" y="430" as="targetPoint" />
            <Array as="points">
              <mxPoint x="-290" y="60" />
            </Array>
          </mxGeometry>
        </mxCell>
        <mxCell id="3vj7JtZrJFT3cAtvKUg--31" value="" style="endArrow=classic;html=1;rounded=0;entryX=0;entryY=0.5;entryDx=0;entryDy=0;exitX=1;exitY=0.5;exitDx=0;exitDy=0;" parent="1" source="wMd6kTmUZ_Vu1S34rb21-22" target="wMd6kTmUZ_Vu1S34rb21-16" edge="1">
          <mxGeometry width="50" height="50" relative="1" as="geometry">
            <mxPoint x="-720" y="470" as="sourcePoint" />
            <mxPoint x="-630" y="430" as="targetPoint" />
            <Array as="points">
              <mxPoint x="-270" y="-150" />
            </Array>
          </mxGeometry>
        </mxCell>
        <mxCell id="3vj7JtZrJFT3cAtvKUg--33" value="" style="endArrow=classic;html=1;rounded=0;exitX=0;exitY=0.3333333333333333;exitDx=0;exitDy=0;exitPerimeter=0;entryX=1;entryY=1;entryDx=0;entryDy=0;" parent="1" source="wMd6kTmUZ_Vu1S34rb21-6" target="wMd6kTmUZ_Vu1S34rb21-8" edge="1">
          <mxGeometry width="50" height="50" relative="1" as="geometry">
            <mxPoint x="-460" y="520" as="sourcePoint" />
            <mxPoint x="-410" y="470" as="targetPoint" />
            <Array as="points">
              <mxPoint x="-220" y="490" />
            </Array>
          </mxGeometry>
        </mxCell>
        <mxCell id="3vj7JtZrJFT3cAtvKUg--35" value="" style="endArrow=classic;html=1;rounded=0;entryX=0;entryY=0.5;entryDx=0;entryDy=0;exitX=0.938;exitY=0.239;exitDx=0;exitDy=0;exitPerimeter=0;" parent="1" source="wMd6kTmUZ_Vu1S34rb21-8" target="wMd6kTmUZ_Vu1S34rb21-53" edge="1">
          <mxGeometry width="50" height="50" relative="1" as="geometry">
            <mxPoint x="-650" y="150" as="sourcePoint" />
            <mxPoint x="-600" y="100" as="targetPoint" />
          </mxGeometry>
        </mxCell>
        <mxCell id="3vj7JtZrJFT3cAtvKUg--36" value="" style="endArrow=classic;html=1;rounded=0;entryX=0;entryY=0.5;entryDx=0;entryDy=0;exitX=1;exitY=0;exitDx=0;exitDy=0;" parent="1" source="wMd6kTmUZ_Vu1S34rb21-8" target="wMd6kTmUZ_Vu1S34rb21-16" edge="1">
          <mxGeometry width="50" height="50" relative="1" as="geometry">
            <mxPoint x="-640" y="140" as="sourcePoint" />
            <mxPoint x="-600" y="90" as="targetPoint" />
            <Array as="points">
              <mxPoint x="-270" y="-150" />
            </Array>
          </mxGeometry>
        </mxCell>
        <mxCell id="3vj7JtZrJFT3cAtvKUg--37" value="" style="endArrow=classic;html=1;rounded=0;entryX=0;entryY=0.5;entryDx=0;entryDy=0;exitX=1;exitY=0.5;exitDx=0;exitDy=0;" parent="1" source="wMd6kTmUZ_Vu1S34rb21-8" target="wMd6kTmUZ_Vu1S34rb21-47" edge="1">
          <mxGeometry width="50" height="50" relative="1" as="geometry">
            <mxPoint x="-636" y="155" as="sourcePoint" />
            <mxPoint x="-300" as="targetPoint" />
            <Array as="points">
              <mxPoint x="-290" y="60" />
            </Array>
          </mxGeometry>
        </mxCell>
        <mxCell id="1J9dzE0NSvAqLHVgBt0C-1" value="" style="rounded=0;whiteSpace=wrap;html=1;fillColor=#e6d0de;strokeColor=#996185;gradientColor=#d5739d;" parent="1" vertex="1">
          <mxGeometry x="430" y="-180" width="80" height="80" as="geometry" />
        </mxCell>
        <mxCell id="wQB8JyjtlqCyXATo5e3q-1" value="&lt;font style=&quot;font-size: 18px;&quot;&gt;Doctor&#39;s use case diagram&amp;nbsp;&lt;/font&gt;" style="text;html=1;align=center;verticalAlign=middle;resizable=0;points=[];autosize=1;strokeColor=none;fillColor=none;" parent="1" vertex="1">
          <mxGeometry x="510" y="-170" width="240" height="40" as="geometry" />
        </mxCell>
        <mxCell id="wQB8JyjtlqCyXATo5e3q-2" value="" style="rounded=0;whiteSpace=wrap;html=1;fillColor=#d5e8d4;strokeColor=#82b366;gradientColor=#97d077;" parent="1" vertex="1">
          <mxGeometry x="430" y="-60" width="80" height="80" as="geometry" />
        </mxCell>
        <mxCell id="wQB8JyjtlqCyXATo5e3q-3" value="&lt;font style=&quot;font-size: 18px;&quot;&gt;Lab Technician&#39;s use case diagram&lt;/font&gt;" style="text;html=1;align=center;verticalAlign=middle;resizable=0;points=[];autosize=1;strokeColor=none;fillColor=none;" parent="1" vertex="1">
          <mxGeometry x="510" y="-45" width="300" height="40" as="geometry" />
        </mxCell>
        <mxCell id="wQB8JyjtlqCyXATo5e3q-4" value="" style="rounded=0;whiteSpace=wrap;html=1;fillColor=#dae8fc;strokeColor=#6c8ebf;gradientColor=#7ea6e0;" parent="1" vertex="1">
          <mxGeometry x="430" y="60" width="80" height="80" as="geometry" />
        </mxCell>
        <mxCell id="wQB8JyjtlqCyXATo5e3q-5" value="&lt;font style=&quot;font-size: 18px;&quot;&gt;Receptionist&#39;s use case diagram&lt;/font&gt;" style="text;html=1;align=center;verticalAlign=middle;resizable=0;points=[];autosize=1;strokeColor=none;fillColor=none;" parent="1" vertex="1">
          <mxGeometry x="510" y="75" width="280" height="40" as="geometry" />
        </mxCell>
        <mxCell id="wQB8JyjtlqCyXATo5e3q-17" value="" style="rounded=0;whiteSpace=wrap;html=1;fillColor=#A9C4EB;strokeColor=#6c8ebf;gradientColor=#B5739D;" parent="1" vertex="1">
          <mxGeometry x="430" y="175" width="80" height="80" as="geometry" />
        </mxCell>
        <mxCell id="wQB8JyjtlqCyXATo5e3q-18" value="" style="rounded=0;whiteSpace=wrap;html=1;fillColor=#97D077;strokeColor=#FFFFFF;gradientColor=#B5739D;" parent="1" vertex="1">
          <mxGeometry x="430" y="300" width="80" height="80" as="geometry" />
        </mxCell>
        <mxCell id="wQB8JyjtlqCyXATo5e3q-19" value="" style="rounded=0;whiteSpace=wrap;html=1;fillColor=#A9C4EB;strokeColor=#6c8ebf;gradientColor=#97D077;" parent="1" vertex="1">
          <mxGeometry x="430" y="415" width="80" height="80" as="geometry" />
        </mxCell>
        <mxCell id="wQB8JyjtlqCyXATo5e3q-20" value="&lt;font style=&quot;font-size: 18px;&quot;&gt;Doctor &amp;amp; Receptionist&#39;s use case diagram&lt;/font&gt;" style="text;html=1;align=center;verticalAlign=middle;resizable=0;points=[];autosize=1;strokeColor=none;fillColor=none;" parent="1" vertex="1">
          <mxGeometry x="510" y="190" width="360" height="40" as="geometry" />
        </mxCell>
        <mxCell id="wQB8JyjtlqCyXATo5e3q-22" value="&lt;font style=&quot;font-size: 18px;&quot;&gt;Lab Technician &amp;amp; Doctor&#39;s use case diagram&lt;/font&gt;" style="text;html=1;align=center;verticalAlign=middle;resizable=0;points=[];autosize=1;strokeColor=none;fillColor=none;" parent="1" vertex="1">
          <mxGeometry x="510" y="310" width="380" height="40" as="geometry" />
        </mxCell>
        <mxCell id="wQB8JyjtlqCyXATo5e3q-23" value="&lt;font style=&quot;font-size: 18px;&quot;&gt;Lab Technician &amp;amp; Receptionist&#39;s use case diagram&lt;/font&gt;" style="text;html=1;align=center;verticalAlign=middle;resizable=0;points=[];autosize=1;strokeColor=none;fillColor=none;" parent="1" vertex="1">
          <mxGeometry x="510" y="430" width="420" height="40" as="geometry" />
        </mxCell>
        <mxCell id="wQB8JyjtlqCyXATo5e3q-24" value="&lt;u&gt;&lt;b&gt;&lt;font style=&quot;font-size: 30px;&quot;&gt;KEY:&lt;/font&gt;&lt;/b&gt;&lt;/u&gt;" style="text;html=1;align=center;verticalAlign=middle;whiteSpace=wrap;rounded=0;" parent="1" vertex="1">
          <mxGeometry x="510" y="-250" width="60" height="30" as="geometry" />
        </mxCell>
        <mxCell id="oVljsdbnZ1PMj2f7wFfl-1" value="&lt;u&gt;&lt;font style=&quot;font-size: 48px;&quot;&gt;&lt;b&gt;Use Case Diagram for Hospital Management System:&lt;/b&gt;&lt;/font&gt;&lt;/u&gt;" style="text;html=1;align=center;verticalAlign=middle;whiteSpace=wrap;rounded=0;" parent="1" vertex="1">
          <mxGeometry x="-1037" y="-300" width="1257" height="30" as="geometry" />
        </mxCell>
      </root>
    </mxGraphModel>
  </diagram>
</mxfile>
